<svg id="Layer_1" data-name="Layer 1" xmlns="http://www.w3.org/2000/svg" viewBox="0 0 395 46.47"><defs><style>.cls-1{fill:#eba721;}</style></defs><path class="cls-1" d="M5.72,44.91A10,10,0,0,1,1.21,40.7,10.54,10.54,0,0,1,0,34.79H3A9.12,9.12,0,0,0,3.74,39a7.67,7.67,0,0,0,3.31,3.54A12.38,12.38,0,0,0,13.41,44,12.5,12.5,0,0,0,22,41.18a9.48,9.48,0,0,0,3.21-7.49,7.25,7.25,0,0,0-1.43-4.61,11,11,0,0,0-3.47-2.92,48.62,48.62,0,0,0-5.62-2.47,55.54,55.54,0,0,1-6-2.69,11.5,11.5,0,0,1-3.73-3.25,8.36,8.36,0,0,1-1.52-5.16q0-.45.12-1.62A11.12,11.12,0,0,1,5.75,5.42a12.91,12.91,0,0,1,5.1-4A17.85,17.85,0,0,1,18.28,0a15.6,15.6,0,0,1,7,1.46,10.26,10.26,0,0,1,4.35,3.83,8.81,8.81,0,0,1,1.3,5H28a6.63,6.63,0,0,0-1-3.6,8,8,0,0,0-3.34-3A11.81,11.81,0,0,0,18,2.47,13.1,13.1,0,0,0,9.68,5a8.44,8.44,0,0,0-3.28,7,6.33,6.33,0,0,0,1.33,4.12A10.65,10.65,0,0,0,11,18.92a49.19,49.19,0,0,0,5.36,2.37,65.71,65.71,0,0,1,6.16,2.82,11.75,11.75,0,0,1,4,3.51,9.31,9.31,0,0,1,1.62,5.61c0,.35,0,1-.13,2a12.06,12.06,0,0,1-2.24,5.68A12.88,12.88,0,0,1,20.68,45a17.6,17.6,0,0,1-7.53,1.52A16.28,16.28,0,0,1,5.72,44.91Z"/><path class="cls-1" d="M67.74,46H64.82L45.28,5.26,38.07,46H35.15L43.2.52h2.92l19.6,40.63L72.86.52h2.92Z"/><path class="cls-1" d="M89,2.86,85.65,22h18.17l-.45,2.34H85.26L81.82,43.62h20.12l-.45,2.4h-23L86.56.45h23l-.45,2.41Z"/><path class="cls-1" d="M138.22,34.33H116.61L110.18,46H107L131.6,1.49h3.25L143.67,46h-3.18Zm-.45-2.4L132.58,5.26,117.91,31.93Z"/><path class="cls-1" d="M160.49,23.3,178.72,46h-3.83L157.76,24.66,153.93,46H151L159.12.45H162l-3.83,21.62L183,.45h3.7Z"/><path class="cls-1" d="M196.05,2.86,192.68,22h18.17l-.45,2.34H192.29l-3.44,19.28H209l-.45,2.4H185.47L193.59.45h23l-.45,2.41Z"/><path class="cls-1" d="M247.85,3.21a9.34,9.34,0,0,1,3.24,7.5,13.71,13.71,0,0,1-.26,2.79,15.69,15.69,0,0,1-4.51,8.67,16.18,16.18,0,0,1-9.38,4.18L245.45,46h-3.51L233.7,26.61h-9.93L220.26,46h-2.92L225.45.45H238C242.4.45,245.68,1.37,247.85,3.21Zm.19,7.63Q248,3,237.53,3h-9.61l-3.76,21.15h9.73q6,0,9.54-2.92a12.47,12.47,0,0,0,4.35-7.72A12.44,12.44,0,0,0,248,10.84Z"/><path class="cls-1" d="M289.4,18.79a12.62,12.62,0,0,1-6.23,3.67,8.63,8.63,0,0,1,6.94,8.76,13.47,13.47,0,0,1-.19,2.21,13.78,13.78,0,0,1-5.62,9.31q-4.57,3.28-12,3.28H248.18l8.12-46h23.43q6.22,0,9.7,2.44a8.11,8.11,0,0,1,3.47,7.11,16.28,16.28,0,0,1-.19,2.4A13,13,0,0,1,289.4,18.79ZM275.64,30.44c0-1.64-1.1-2.47-3.31-2.47h-6.56l-1.1,6.49h6.56a5.19,5.19,0,0,0,3-.74,3.41,3.41,0,0,0,1.33-2.44A3.81,3.81,0,0,0,275.64,30.44ZM277.59,14a2.16,2.16,0,0,0-.81-1.88,4.33,4.33,0,0,0-2.5-.58h-5.59L267.53,18h5.58a5.21,5.21,0,0,0,3.05-.78,3.46,3.46,0,0,0,1.36-2.4A4.75,4.75,0,0,0,277.59,14Z"/><path class="cls-1" d="M323.28,39.07H308l-3.5,7H289.33l24.93-46h16.61l8.64,46H324.32Zm-1.56-10.84-1.88-12.78-6.43,12.78Z"/><path class="cls-1" d="M395,.06l-22.13,32L370.4,46H356l2.47-14L347.62.06H364.1l4.48,16.3L378.77.06Z"/></svg>